<mxfile host="app.diagrams.net" modified="2024-07-10T18:00:55.882Z" agent="Mozilla/5.0 (Macintosh; Intel Mac OS X 10_15_7) AppleWebKit/605.1.15 (KHTML, like Gecko) Version/17.5 Safari/605.1.15" version="24.6.4" etag="f-F7P7dcWNQipj8DFaDh" type="github">
  <diagram name="Page-1" id="BJC9r7u3Ly7VHhH5kgPh">
    <mxGraphModel>
      <root>
        <mxCell id="0" />
        <mxCell id="1" parent="0" />
      </root>
    </mxGraphModel>
  </diagram>
</mxfile>
